<?xml version="1.0" encoding="UTF-8"?>
<svg version="1.1" xmlns="http://www.w3.org/2000/svg" width="150" height="150">
<path d="M0 0 C1.71388916 0.01353516 1.71388916 0.01353516 3.46240234 0.02734375 C12.00549211 0.20256166 19.20612575 1.02998441 27.125 4.4375 C27.7658252 4.71126465 28.40665039 4.9850293 29.06689453 5.26708984 C48.55992236 13.78346123 61.87853285 27.22896927 70.6875 46.4765625 C74.28549083 55.75688897 75.66147719 64.83449612 75.5625 74.75 C75.55347656 75.84304443 75.54445312 76.93608887 75.53515625 78.06225586 C75.12798046 97.15569006 67.77905016 115.824453 54.125 129.4375 C46.02897437 136.89824427 37.51844029 142.61674358 27.125 146.4375 C26.03445312 146.84871094 24.94390625 147.25992188 23.8203125 147.68359375 C3.50776985 154.2207038 -18.29850536 151.33976753 -37.08984375 141.85131836 C-44.03863132 138.07684775 -49.41572344 133.09291823 -54.875 127.4375 C-55.61234375 126.73109375 -56.3496875 126.0246875 -57.109375 125.296875 C-63.55233415 118.75402501 -67.29870986 110.78561838 -70.875 102.4375 C-71.33390625 101.37144531 -71.7928125 100.30539063 -72.265625 99.20703125 C-77.66421016 83.90470359 -77.28772393 63.34030914 -70.875 48.4375 C-70.60123535 47.7966748 -70.3274707 47.15584961 -70.04541016 46.49560547 C-61.52903877 27.00257764 -48.08353073 13.68396715 -28.8359375 4.875 C-19.35077083 1.20198309 -10.12976547 -0.0963163 0 0 Z " fill="#000000" transform="translate(74.875,-0.4375)"/>
<path d="M0 0 C0.61028268 10.88401421 -1.02463538 21.21318337 -2.82592773 31.9128418 C-3.31408216 34.82192863 -3.78211923 37.733764 -4.24804688 40.64648438 C-4.55610654 42.52102848 -4.86531139 44.39538482 -5.17578125 46.26953125 C-5.31341385 47.12803177 -5.45104645 47.98653229 -5.59284973 48.87104797 C-7.80416962 61.80416962 -7.80416962 61.80416962 -11 65 C-16.04181944 65.51205623 -18.59273743 64.42714109 -22.73046875 61.60546875 C-23.78041016 60.89712891 -24.83035156 60.18878906 -25.91210938 59.45898438 C-27.53342773 58.33459961 -27.53342773 58.33459961 -29.1875 57.1875 C-30.27998047 56.44951172 -31.37246094 55.71152344 -32.49804688 54.95117188 C-41.91962753 48.53660217 -41.91962753 48.53660217 -44 46 C-43.84768277 41.85432248 -42.38836526 39.90839932 -39.4375 37.125 C-38.71433594 36.43664062 -37.99117187 35.74828125 -37.24609375 35.0390625 C-34.54256046 32.58472445 -31.79534778 30.18646088 -29.03125 27.80078125 C-25.54014253 24.7057802 -22.05330125 21.53240969 -19 18 C-19 17.34 -19 16.68 -19 16 C-23.95227227 17.38744932 -27.87437541 19.65544894 -32.078125 22.53515625 C-32.73077332 22.97387558 -33.38342163 23.41259491 -34.05584717 23.86460876 C-36.12504785 25.25739482 -38.18766065 26.6595792 -40.25 28.0625 C-42.32794473 29.46693883 -44.40718733 30.86943133 -46.48699951 32.27110291 C-47.77716242 33.14158139 -49.06598843 34.01404531 -50.35333252 34.88868713 C-55.41011757 38.31627107 -57.79516465 39.35062642 -64 39 C-66.71716497 38.35008261 -69.31323732 37.45287261 -71.9375 36.5 C-72.62134766 36.26152344 -73.30519531 36.02304688 -74.00976562 35.77734375 C-75.67658097 35.19454118 -77.33880316 34.59862949 -79 34 C-78.7742157 32.15356445 -78.7742157 32.15356445 -78 30 C-76.09455872 28.68041992 -76.09455872 28.68041992 -73.61254883 27.54296875 C-72.70413239 27.12063965 -71.79571594 26.69831055 -70.85977173 26.26318359 C-69.91604706 25.84633301 -68.97232239 25.42948242 -68 25 C-67.13369965 24.61279785 -66.26739929 24.2255957 -65.37484741 23.82666016 C-62.6587537 22.63277559 -59.93150452 21.46882391 -57.19921875 20.3125 C-56.20098587 19.88751221 -55.20275299 19.46252441 -54.17427063 19.0246582 C-52.0765434 18.13243105 -49.97816028 17.24174451 -47.87915039 16.35253906 C-44.70479464 15.00732902 -41.53292229 13.65639365 -38.36132812 12.3046875 C-7.66775745 -0.75174093 -7.66775745 -0.75174093 0 0 Z " fill="#FFFFFF" transform="translate(109,46)"/>
</svg>
